<?xml version="1.0" encoding="UTF-8" standalone="no"?>
<svg
   width="70"
   height="27"
   viewBox="0 0 70 27"
   fill="none"
   version="1.1"
   id="svg14"
   sodipodi:docname="Bed-bath-beyond-2024.svg"
   inkscape:version="1.3.2 (091e20e, 2023-11-25, custom)"
   xmlns:inkscape="http://www.inkscape.org/namespaces/inkscape"
   xmlns:sodipodi="http://sodipodi.sourceforge.net/DTD/sodipodi-0.dtd"
   xmlns="http://www.w3.org/2000/svg"
   xmlns:svg="http://www.w3.org/2000/svg">
  <defs
     id="defs14" />
  <sodipodi:namedview
     id="namedview14"
     pagecolor="#ffffff"
     bordercolor="#000000"
     borderopacity="0.25"
     inkscape:showpageshadow="2"
     inkscape:pageopacity="0.0"
     inkscape:pagecheckerboard="0"
     inkscape:deskcolor="#d1d1d1"
     inkscape:zoom="17.4"
     inkscape:cx="35"
     inkscape:cy="13.477011"
     inkscape:window-width="1920"
     inkscape:window-height="1094"
     inkscape:window-x="-11"
     inkscape:window-y="-11"
     inkscape:window-maximized="1"
     inkscape:current-layer="svg14" />
  <path
     d="M3.43891 18.3553H5.35414C5.65883 18.3553 5.91565 18.3117 6.11588 18.2203C6.32046 18.1289 6.47281 17.9984 6.58163 17.8286C6.69045 17.6588 6.74268 17.4543 6.74268 17.2192C6.74268 16.8579 6.62515 16.5924 6.38575 16.4226C6.14634 16.2529 5.80247 16.1702 5.34978 16.1702H4.28335V23.0171H5.65448C5.98094 23.0171 6.27694 22.9823 6.54246 22.917C6.80798 22.8474 7.02126 22.7211 7.17796 22.534C7.33466 22.3468 7.41736 22.0813 7.41736 21.7287C7.41736 21.5023 7.37383 21.3152 7.28242 21.1672C7.19101 21.0192 7.06478 20.9017 6.89937 20.8103C6.73397 20.7189 6.54681 20.6579 6.33787 20.6231C6.12894 20.5883 5.89823 20.5709 5.65012 20.5709H3.43019V18.7732H6.05929C6.63386 18.7732 7.20407 18.8385 7.76993 18.969C8.3358 19.0996 8.84943 19.3042 9.31083 19.5784C9.77223 19.857 10.1422 20.2096 10.4208 20.6449C10.6994 21.0801 10.8343 21.6025 10.8343 22.2118C10.8343 23.0041 10.6428 23.6396 10.2597 24.1271C9.87669 24.6146 9.32824 24.9672 8.61438 25.1848C7.90052 25.4068 7.04737 25.5156 6.05493 25.5156H0.988281V13.6499H5.75024C6.59904 13.6499 7.35206 13.7631 8.01369 13.9894C8.67532 14.2158 9.19765 14.5509 9.5807 14.9993C9.96375 15.4476 10.1553 16.0091 10.1553 16.6838C10.1553 17.3585 9.96375 17.8808 9.5807 18.3379C9.19765 18.7949 8.67532 19.1388 8.01369 19.3738C7.35206 19.6089 6.59904 19.7221 5.75024 19.7221H3.43019V18.3509L3.43891 18.3553Z"
     fill="white"
     id="path1"
     style="fill:#1a1a1a" />
  <path
     d="M15.3389 13.6587V25.5244H12.1875V13.6587H15.3389ZM14.4205 13.6587H20.4056V16.3182H14.4205V13.6587ZM14.4205 18.0681H20.0661V20.6449H14.4205V18.0681ZM14.4205 22.8605H20.4056V25.5201H14.4205V22.8605Z"
     fill="white"
     id="path2"
     style="fill:#1a1a1a" />
  <path
     d="M32.5877 13.6587L28.3829 20.7755V25.5201H25.0269V20.8103L20.8047 13.6587H24.6003L26.7027 17.8113L28.7877 13.6587H32.5834H32.5877Z"
     fill="white"
     id="path3"
     style="fill:#1a1a1a" />
  <path
     d="M32.1421 17.0411C32.4773 16.2793 32.9343 15.6221 33.5219 15.0736C34.1096 14.5252 34.7973 14.1029 35.5808 13.8026C36.3643 13.5023 37.2174 13.3542 38.1315 13.3542C39.0456 13.3542 39.9292 13.5023 40.7171 13.8026C41.5006 14.1029 42.1883 14.5252 42.776 15.0736C43.3636 15.6221 43.8163 16.275 44.1384 17.0411C44.4605 17.8028 44.6216 18.656 44.6216 19.5918C44.6216 20.5277 44.4649 21.3721 44.1471 22.1513C43.8294 22.9304 43.3854 23.6051 42.8064 24.1753C42.2319 24.7455 41.5441 25.1852 40.7476 25.4986C39.951 25.812 39.0805 25.9643 38.1272 25.9643C37.1739 25.9643 36.3077 25.8076 35.5155 25.4986C34.7233 25.1895 34.0399 24.7455 33.4566 24.1753C32.8734 23.6051 32.425 22.9304 32.1073 22.1513C31.7895 21.3721 31.6328 20.519 31.6328 19.5918C31.6328 18.6647 31.7982 17.8028 32.1334 17.0411H32.1421ZM35.4894 21.2763C35.7375 21.7682 36.0901 22.1512 36.5384 22.4298C36.9911 22.7084 37.5221 22.8433 38.1315 22.8433C38.7409 22.8433 39.285 22.704 39.7334 22.4298C40.1774 22.1512 40.5256 21.7682 40.7737 21.2763C41.0218 20.7845 41.148 20.223 41.148 19.5918C41.148 18.9607 41.0305 18.3817 40.7911 17.8986C40.5517 17.4111 40.2122 17.0324 39.7638 16.7538C39.3155 16.4752 38.7714 16.3403 38.1272 16.3403C37.5178 16.3403 36.9868 16.4796 36.5341 16.7538C36.0814 17.0324 35.7332 17.4111 35.485 17.8986C35.2369 18.3861 35.1107 18.9476 35.1107 19.5918C35.1107 20.236 35.2369 20.7888 35.485 21.2763H35.4894Z"
     fill="white"
     id="path4"
     style="fill:#1a1a1a" />
  <path
     d="M56.8965 13.6589V26.1166L48.9483 19.4916V25.5246H45.7969V13.0669L53.7451 19.6918V13.6589H56.8965Z"
     fill="white"
     id="path5"
     style="fill:#1a1a1a" />
  <path
     d="M62.1504 13.6587V25.5244H58.7422V13.6587H62.1504ZM60.9795 25.5244V22.6429H63.0471C63.4432 22.6429 63.8306 22.5993 64.2093 22.5166C64.588 22.4296 64.9275 22.2816 65.2366 22.0596C65.5413 21.8376 65.7894 21.5285 65.9722 21.1281C66.1594 20.7276 66.2508 20.214 66.2508 19.5959C66.2508 18.9778 66.1594 18.4642 65.9722 18.0637C65.785 17.6633 65.5413 17.3499 65.2366 17.1322C64.9319 16.9102 64.588 16.7579 64.2093 16.6752C63.8306 16.5925 63.4432 16.549 63.0471 16.549H60.9795V13.6674H63.182C64.5271 13.6674 65.6805 13.9068 66.6469 14.39C67.6132 14.8688 68.3575 15.5522 68.8842 16.4314C69.4109 17.3107 69.6721 18.3684 69.6721 19.6002C69.6721 20.8321 69.4109 21.8724 68.8842 22.7604C68.3575 23.6483 67.6132 24.3317 66.6469 24.8106C65.6805 25.2894 64.5271 25.5331 63.182 25.5331H60.9795V25.5244Z"
     fill="white"
     id="path6"
     style="fill:#1a1a1a" />
  <path
     d="M1.70806 4.84025H3.36213C3.77564 4.84025 4.15869 4.77495 4.50256 4.64437C4.84643 4.51378 5.12066 4.31355 5.32089 4.04368C5.52112 3.77381 5.62558 3.43429 5.62558 3.01643C5.62558 2.4288 5.42099 1.97177 5.01183 1.64095C4.60267 1.31449 4.05422 1.14909 3.36213 1.14909H1.89088V10.29H3.51447C4.04986 10.29 4.51997 10.1985 4.92478 10.0157C5.32959 9.83291 5.64299 9.56739 5.86499 9.21916C6.08698 8.87094 6.20015 8.4313 6.20015 7.90461C6.20015 7.53027 6.13051 7.19947 5.98687 6.90783C5.84322 6.62054 5.64734 6.37679 5.39488 6.18092C5.14242 5.98504 4.85513 5.83268 4.53738 5.73257C4.21962 5.63245 3.87575 5.58023 3.51447 5.58023H1.70806V5.09272H3.57541C4.01069 5.09272 4.43726 5.14929 4.85078 5.26681C5.26429 5.38434 5.63863 5.55846 5.96509 5.78916C6.29591 6.02421 6.55707 6.32021 6.75295 6.67714C6.94882 7.03843 7.04894 7.46064 7.04894 7.9438C7.04894 8.64024 6.89659 9.21916 6.5919 9.6762C6.2872 10.1332 5.86933 10.4728 5.33829 10.6948C4.80725 10.9168 4.19786 11.0299 3.51012 11.0299H1.05078V0.400391H3.35777C3.99763 0.400391 4.54609 0.496167 5.00749 0.68769C5.46888 0.879213 5.82581 1.16649 6.07827 1.54518C6.33073 1.92387 6.45696 2.39833 6.45696 2.96419C6.45696 3.48218 6.32637 3.9131 6.06956 4.26132C5.81274 4.60954 5.45582 4.87506 4.99877 5.04917C4.54173 5.22764 4.01504 5.31472 3.4187 5.31472H1.7037V4.8272L1.70806 4.84025Z"
     fill="white"
     id="path7"
     style="fill:#1a1a1a" />
  <path
     d="M9.07012 0.404541V11.0341H8.23438V0.404541H9.07012ZM8.67836 0.404541H13.9496V1.1924H8.67836V0.404541ZM8.67836 4.80957H13.6449V5.59742H8.67836V4.80957ZM8.67836 10.2462H13.9496V11.0341H8.67836V10.2462Z"
     fill="white"
     id="path8"
     style="fill:#1a1a1a" />
  <path
     d="M16.2732 0.404748V11.0343H15.4375V0.404748H16.2732ZM15.8945 11.0343V10.1985H18.3234C18.9807 10.1985 19.5814 10.0941 20.1211 9.8808C20.6609 9.66751 21.1266 9.36716 21.5096 8.97541C21.8927 8.58801 22.1887 8.11356 22.3976 7.5651C22.6066 7.0123 22.711 6.39856 22.711 5.71952C22.711 5.04049 22.6066 4.42675 22.3976 3.87394C22.1887 3.32114 21.8927 2.85103 21.5096 2.45928C21.1266 2.07188 20.6609 1.76718 20.1211 1.55389C19.5814 1.34061 18.9807 1.23615 18.3234 1.23615H15.8945V0.400391H18.3234C19.355 0.400391 20.2647 0.6224 21.0482 1.07074C21.8318 1.51472 22.4455 2.13716 22.8851 2.92936C23.3248 3.72593 23.5468 4.65308 23.5468 5.71517C23.5468 6.77725 23.3248 7.70873 22.8851 8.50094C22.4455 9.29315 21.8318 9.91561 21.0482 10.3596C20.2647 10.8036 19.355 11.0299 18.3234 11.0299H15.8945V11.0343Z"
     fill="white"
     id="path9"
     style="fill:#1a1a1a" />
  <path
     d="M28.2666 4.84025H29.9207C30.3342 4.84025 30.7173 4.77495 31.0611 4.64437C31.405 4.51378 31.6792 4.31355 31.8795 4.04368C32.0797 3.77381 32.1842 3.43429 32.1842 3.01643C32.1842 2.4288 31.9796 1.97177 31.5704 1.64095C31.1613 1.31449 30.6128 1.14909 29.9207 1.14909H28.4495V10.29H30.0731C30.6085 10.29 31.0786 10.1985 31.4834 10.0157C31.8882 9.83291 32.2016 9.56739 32.4236 9.21916C32.6456 8.87094 32.7587 8.4313 32.7587 7.90461C32.7587 7.53027 32.6891 7.19947 32.5454 6.90783C32.4018 6.62054 32.2059 6.37679 31.9535 6.18092C31.701 5.98504 31.4137 5.83268 31.096 5.73257C30.7782 5.63245 30.4343 5.58023 30.0731 5.58023H28.2666V5.09272H30.134C30.5693 5.09272 30.9958 5.14929 31.4094 5.26681C31.8229 5.38434 32.1972 5.55846 32.5237 5.78916C32.8545 6.02421 33.1157 6.32021 33.3115 6.67714C33.5074 7.03843 33.6075 7.46064 33.6075 7.9438C33.6075 8.64024 33.4552 9.21916 33.1505 9.6762C32.8458 10.1332 32.4279 10.4728 31.8969 10.6948C31.3658 10.9168 30.7564 11.0299 30.0687 11.0299H27.6094V0.400391H29.9164C30.5562 0.400391 31.1047 0.496167 31.5661 0.68769C32.0275 0.879213 32.3844 1.16649 32.6369 1.54518C32.8893 1.92387 33.0155 2.39833 33.0155 2.96419C33.0155 3.48218 32.885 3.9131 32.6281 4.26132C32.3713 4.60954 32.0144 4.87506 31.5574 5.04917C31.1003 5.22764 30.5736 5.31472 29.9773 5.31472H28.2623V4.8272L28.2666 4.84025Z"
     fill="white"
     id="path10"
     style="fill:#1a1a1a" />
  <path
     d="M36.0622 6.9514L35.9708 7.13424L34.3777 11.0387H33.4375L38.1298 0L42.8221 11.0387H41.8819L40.3019 7.19516L40.2279 6.99931L38.1342 1.92829L36.0709 6.95576L36.0622 6.9514ZM35.6966 6.6772H40.6022L40.8764 7.46506H35.4267L35.7009 6.6772H35.6966Z"
     fill="white"
     id="path11"
     style="fill:#1a1a1a" />
  <path
     d="M41.1953 0.404541H47.62V1.1924H44.8256V11.0341H43.9898V1.1924H41.1953V0.404541Z"
     fill="white"
     id="path12"
     style="fill:#1a1a1a" />
  <path
     d="M49.0271 0.404541V11.0341H48.1914V0.404541H49.0271ZM48.631 4.85311H55.8001V5.64097H48.631V4.85311ZM56.0874 0.404541V11.0341H55.2386V0.404541H56.0874Z"
     fill="white"
     id="path13"
     style="fill:#1a1a1a" />
  <path
     d="M62.0642 4.30043C61.8466 4.06102 61.6594 3.79115 61.5027 3.48645C61.346 3.18176 61.2677 2.84223 61.2677 2.46789C61.2677 2.03261 61.3678 1.64958 61.5724 1.31441C61.7726 0.979247 62.0599 0.71808 62.4299 0.526557C62.7998 0.335034 63.2351 0.239258 63.7444 0.239258C64.2537 0.239258 64.6933 0.348078 65.0415 0.565718C65.3898 0.783358 65.6553 1.06629 65.8381 1.41016C66.0209 1.75403 66.1123 2.11967 66.1123 2.50272C66.1123 2.75518 66.0601 3.00329 65.96 3.23834C65.8599 3.47775 65.7162 3.70844 65.5291 3.93914C65.3419 4.16548 65.1112 4.38748 64.837 4.60077C64.5627 4.81406 64.2493 5.02733 63.8968 5.23626C63.6225 5.39731 63.3178 5.56709 62.9783 5.74556C62.6388 5.92402 62.3167 6.12425 62.0076 6.34625C61.6986 6.56824 61.4418 6.83374 61.2415 7.14279C61.037 7.45184 60.9369 7.83055 60.9369 8.27453C60.9369 8.71852 61.05 9.12333 61.272 9.44979C61.494 9.78061 61.7944 10.0287 62.1774 10.2028C62.5605 10.3769 62.9783 10.4596 63.4441 10.4596C63.9925 10.4596 64.5018 10.3378 64.9763 10.0896C65.4507 9.84153 65.899 9.51507 66.3126 9.11026C66.7261 8.70545 67.1265 8.25712 67.5139 7.75655C67.897 7.26033 68.2713 6.75541 68.6369 6.23743L69.2594 6.61612C68.8546 7.14281 68.4498 7.6782 68.045 8.21794C67.6402 8.75769 67.2092 9.25389 66.7478 9.69788C66.2864 10.1419 65.7815 10.5032 65.2374 10.7774C64.6933 11.0516 64.0796 11.1866 63.4005 11.1866C62.8216 11.1866 62.2862 11.0734 61.7813 10.8427C61.2807 10.6163 60.8759 10.2855 60.5669 9.8546C60.2578 9.42367 60.1055 8.91003 60.1055 8.31369C60.1055 7.86971 60.1838 7.47795 60.3405 7.14279C60.4972 6.80762 60.7018 6.516 60.9499 6.26354C61.198 6.01108 61.4679 5.79344 61.7639 5.61062C62.0555 5.4278 62.3472 5.27109 62.6301 5.1318C62.913 4.99686 63.1568 4.87064 63.357 4.76182C63.9664 4.40924 64.4409 4.03924 64.7934 3.66055C65.146 3.28186 65.3158 2.89447 65.3158 2.49836C65.3158 2.22413 65.2592 1.97168 65.1417 1.74098C65.0241 1.50593 64.8544 1.31876 64.6237 1.17076C64.393 1.02277 64.1057 0.948766 63.7488 0.948766C63.2134 0.948766 62.7999 1.0924 62.5169 1.37969C62.234 1.66697 62.0903 2.0326 62.0903 2.46353C62.0903 2.89446 62.2122 3.24705 62.4603 3.5648C62.7084 3.88256 62.9696 4.20031 63.2438 4.51371L68.9242 11.0299H67.984L62.6388 4.94027C62.4777 4.74875 62.2862 4.53112 62.0686 4.29607L62.0642 4.30043Z"
     fill="white"
     id="path14"
     style="fill:#1a1a1a" />
</svg>
